<?xml version="1.0" encoding="utf-8"?>
<!-- Generator: Adobe Illustrator 27.0.0, SVG Export Plug-In . SVG Version: 6.00 Build 0)  -->
<svg version="1.1" id="레이어_1" xmlns="http://www.w3.org/2000/svg" xmlns:xlink="http://www.w3.org/1999/xlink" x="0px"
	 y="0px" viewBox="0 0 512 512" style="enable-background:new 0 0 512 512;" xml:space="preserve">
<style type="text/css">
	.st0{fill:#2E2E2E;}
	.st1{fill:#F5F5F5;}
</style>
<path d="M1008-160c141.4,0,256-114.6,256-256s-114.6-256-256-256S752-557.4,752-416S866.6-160,1008-160z M1129-401
	c9.4,9.4,9.4,24.6,0,33.9s-24.6,9.4-33.9,0l-87-87l-87,87c-9.4,9.4-24.6,9.4-33.9,0s-9.4-24.6,0-33.9L991-505
	c9.4-9.4,24.6-9.4,33.9,0L1129-401z"/>
<g>
	<circle class="st0" cx="256" cy="256" r="228.7"/>
	<path class="st1" d="M256,507.9c139.1,0,251.9-112.8,251.9-251.9S395.1,4.1,256,4.1S4.1,116.9,4.1,256S116.9,507.9,256,507.9z
		 M375.1,270.8c9.3,9.3,9.3,24.2,0,33.4c-9.3,9.2-24.2,9.3-33.4,0l-85.6-85.6l-85.6,85.6c-9.3,9.3-24.2,9.3-33.4,0
		c-9.2-9.3-9.3-24.2,0-33.4l102.2-102.4c9.3-9.3,24.2-9.3,33.4,0L375.1,270.8z"/>
</g>
</svg>
